<?xml version="1.0" encoding="iso-8859-1"?>
<!-- Generator: Adobe Illustrator 19.0.0, SVG Export Plug-In . SVG Version: 6.00 Build 0)  -->
<svg version="1.1" id="Layer_1" xmlns="http://www.w3.org/2000/svg" xmlns:xlink="http://www.w3.org/1999/xlink" x="0px" y="0px"
	 viewBox="0 0 330 330" style="enable-background:new 0 0 330 330;" xml:space="preserve" fill="#fff">
<path id="XMLID_169_" d="M320.847,219.194c5.923-16.983,9.153-35.217,9.153-54.193c0-18.974-3.229-37.206-9.15-54.187
	c-0.171-0.587-0.368-1.163-0.606-1.719C297.288,45.547,236.366,0,165,0S32.712,45.547,9.757,109.096
	c-0.238,0.556-0.436,1.131-0.606,1.719C3.23,127.795,0,146.027,0,165.001c0,18.976,3.23,37.21,9.153,54.193
	c0.169,0.581,0.364,1.151,0.6,1.7C32.705,284.449,93.63,330,165,330s132.295-45.551,155.247-109.105
	C320.482,220.345,320.678,219.775,320.847,219.194z M165,300c-3.23,0-12.642-8.232-21.124-33.677
	c-3.591-10.773-6.522-23.036-8.759-36.324h59.768c-2.237,13.289-5.168,25.552-8.759,36.324C177.644,291.768,168.23,300,165,300z
	 M131.404,199.999c-0.926-11.29-1.404-23.022-1.404-34.998c0-11.978,0.478-23.71,1.405-35.002h67.191
	c0.926,11.291,1.404,23.024,1.404,35.002c0,11.976-0.479,23.708-1.404,34.998H131.404z M30,165.001
	c0-12.102,1.61-23.834,4.611-35.002h66.725c-0.873,11.371-1.336,23.086-1.336,35.002c0,11.914,0.463,23.628,1.336,34.998H34.61
	C31.61,188.832,30,177.102,30,165.001z M165,30c3.23,0,12.644,8.232,21.125,33.677c3.591,10.772,6.521,23.035,8.759,36.322h-59.767
	c2.237-13.288,5.168-25.55,8.759-36.322C152.358,38.232,161.77,30,165,30z M228.664,129.999h66.725
	c3.001,11.168,4.611,22.899,4.611,35.002c0,12.101-1.609,23.831-4.61,34.998h-66.725c0.873-11.37,1.336-23.084,1.336-34.998
	C230,153.086,229.537,141.371,228.664,129.999z M283.288,99.999h-58.036c-2.578-16.776-6.156-32.28-10.666-45.809
	c-2.153-6.459-4.42-12.16-6.762-17.225C240.148,47.806,267.049,70.566,283.288,99.999z M122.177,36.965
	c-2.342,5.065-4.608,10.766-6.762,17.225c-4.51,13.529-8.089,29.033-10.666,45.809H46.712
	C62.951,70.565,89.853,47.805,122.177,36.965z M46.711,229.999h58.038c2.577,16.776,6.157,32.281,10.667,45.811
	c2.153,6.459,4.42,12.16,6.762,17.225C89.852,282.195,62.95,259.434,46.711,229.999z M207.824,293.034
	c2.342-5.065,4.608-10.766,6.762-17.225c4.51-13.529,8.089-29.034,10.666-45.811h58.037
	C267.051,259.434,240.149,282.194,207.824,293.034z"/>
<g>
</g>
<g>
</g>
<g>
</g>
<g>
</g>
<g>
</g>
<g>
</g>
<g>
</g>
<g>
</g>
<g>
</g>
<g>
</g>
<g>
</g>
<g>
</g>
<g>
</g>
<g>
</g>
<g>
</g>
</svg>
